<svg width="92px" height="40px" viewBox="0 0 92 40" style="margin: 20px;">
  <g id="--" stroke="none" stroke-width="1" fill="none" fill-rule="evenodd">
    <g id="Home-2" transform="translate(-40.000000, -40.000000)" fill="currentColor">
      <g id="Group-6" transform="translate(40.000000, 40.000000)">
        <path d="M0,0.426966292 L0,0.516853933 L2.94382022,3.3258427 C3.23595506,3.59550562 3.39325843,3.95505618 3.39325843,4.38202247 L3.39325843,39.9550562 C5.14606742,39.2808989 6.62921348,38.2921348 7.84269663,36.988764 C10.247191,34.4269663 11.4382022,30.8988764 11.4382022,26.4269663 L11.4382022,4.38202247 C11.4382022,3.93258427 11.5955056,3.57303371 11.8876404,3.3258427 L14.8314607,0.516853933 L14.8314607,0.426966292 L0,0.426966292 Z" id="Path"></path>
        <path d="M91.1910112,9.1011236 L91.1910112,39.9775281 C89.3932584,39.3033708 87.8651685,38.2921348 86.6292135,36.988764 C84.2247191,34.4269663 83.1235955,30.8988764 83.1235955,26.4269663 L83.1235955,8.69662921 C83.1235955,4.92134831 81.5955056,3.28089888 78.8764045,3.28089888 C77.0561798,3.28089888 75.258427,3.73033708 75.258427,3.73033708 L75.258427,26.5617978 C75.258427,27.0786517 75.3707865,27.3932584 75.6853933,27.9101124 L78.0898876,31.5730337 L78.0898876,31.6629213 L69.9550562,31.6629213 L67.5280899,27.8876404 C67.2808989,27.5280899 67.1910112,27.1910112 67.1910112,26.5617978 L67.1910112,4.15730337 C67.1910112,3.66292135 67.0337079,3.25842697 66.741573,2.94382022 L64.3370787,0.494382022 L64.3370787,0.404494382 L75.2359551,0.404494382 L75.2359551,2.8988764 C77.3033708,1.21348315 80.4044944,0.0224719101 83.0786517,0.0224719101 C88.4044944,-4.47107629e-14 91.1910112,3.3258427 91.1910112,9.1011236 Z" id="Path"></path>
        <path d="M67.6179775,31.6853933 L67.6179775,31.5955056 L65.752809,28.6067416 C65.3033708,27.8876404 65.011236,27.2808989 64.8539326,26.7865169 L56.5393258,0.426966292 L48.4044944,0.426966292 L46.0898876,0.426966292 L46.0898876,0.516853933 L48.7191011,3.5505618 C48.988764,3.84269663 49.1235955,4.06741573 49.1685393,4.24719101 C49.1910112,4.40449438 49.1460674,4.69662921 48.988764,5.12359551 L42.8089888,24.0674157 C42.6067416,24.6966292 42.2696629,25.3033708 41.7752809,25.9325843 L37.505618,31.6179775 L37.505618,31.7078652 L39.7977528,31.7078652 L48.0224719,31.7078652 L48.0224719,31.6179775 L44.0674157,25.9325843 C44.0674157,25.9325843 44.0674157,25.9325843 44.0674157,25.9325843 C43.7977528,25.5505618 43.6404494,25.2808989 43.5955056,25.1460674 C43.5505618,24.988764 43.5955056,24.741573 43.7078652,24.3820225 L44.8539326,20.8314607 L54.5842697,20.8314607 L56.6741573,27.4606742 C56.8314607,27.9550562 56.7865169,28.3595506 56.5842697,28.6516854 L54.4494382,31.6404494 L54.4494382,31.7303371 L56.7640449,31.7303371 L64.3820225,31.7303371 L67.6179775,31.7303371 L67.6179775,31.6853933 Z M45.1685393,19.9101124 L49.8426966,5.50561798 L50.494382,7.59550562 L50.9662921,9.14606742 L54.3370787,19.9325843 L45.1685393,19.9325843 L45.1685393,19.9101124 Z" id="Shape" fill-rule="nonzero"></path>
        <path d="M27.8876404,-2.84217094e-14 C19.505618,-2.84217094e-14 14.1797753,5.5505618 14.1797753,16.0449438 C14.1797753,26.5393258 19.505618,32.0898876 27.8876404,32.0898876 C36.2696629,32.0898876 41.5955056,26.5393258 41.5955056,16.0449438 C41.5955056,5.5505618 36.2696629,-2.84217094e-14 27.8876404,-2.84217094e-14 Z M31.3707865,30.4044944 C30.6292135,30.6516854 29.5730337,30.8539326 28.6516854,30.8539326 C26.6516854,30.8539326 25.0337079,29.9325843 24.247191,28.1573034 C23.3932584,26.2696629 23.0786517,22.8988764 23.0786517,16.0449438 C23.0786517,5.34831461 23.5955056,2.83146067 24.4044944,1.66292135 C25.1460674,1.41573034 26.2022472,1.21348315 27.1235955,1.21348315 C29.1235955,1.21348315 30.741573,2.13483146 31.5280899,3.91011236 C32.3820225,5.79775281 32.6741573,9.16853933 32.6741573,16.0224719 C32.6966292,26.741573 32.1797753,29.258427 31.3707865,30.4044944 Z" id="Shape" fill-rule="nonzero"></path>
      </g>
    </g>
  </g>
</svg>